<svg aria-hidden="true" style="position: absolute; width: 0; height: 0; overflow: hidden;" version="1.1" xmlns="http://www.w3.org/2000/svg" xmlns:xlink="http://www.w3.org/1999/xlink">
<defs>
<symbol id="icon-mountains" viewBox="0 0 24 24">
<path d="M14.016 6l9 12h-22.031l6-8.016 4.5 6 1.594-1.172-2.813-3.797z"></path>
</symbol>
<symbol id="icon-self_improvement" viewBox="0 0 24 24">
<path d="M9.984 6q0-0.844 0.586-1.43t1.43-0.586 1.43 0.586 0.586 1.43-0.586 1.43-1.43 0.586-1.43-0.586-0.586-1.43zM21 15.984v-1.969q-1.688 0-3.094-0.703t-2.484-2.016l-1.359-1.594q-0.609-0.703-1.547-0.703h-1.031q-0.938 0-1.547 0.703l-1.313 1.594q-1.125 1.313-2.531 2.016t-3.094 0.703v1.969q2.063 0 3.844-0.844t3.141-2.391v2.25l-3.844 1.547q-0.516 0.188-0.82 0.656t-0.305 0.984q0 0.75 0.516 1.289t1.266 0.539h2.203v-0.516q0-1.031 0.727-1.758t1.758-0.727h3q0.234 0 0.375 0.141t0.141 0.328q0 0.234-0.141 0.375t-0.375 0.141h-3q-0.609 0-1.055 0.445t-0.445 1.055v0.516h7.219q0.75 0 1.266-0.539t0.516-1.289q0-0.516-0.305-0.984t-0.82-0.656l-3.844-1.547v-2.25q1.359 1.547 3.141 2.391t3.844 0.844z"></path>
</symbol>
<symbol id="icon-chevron-thin-down" viewBox="0 0 20 20">
<path d="M17.418 6.109c0.272-0.268 0.709-0.268 0.979 0s0.271 0.701 0 0.969l-7.908 7.83c-0.27 0.268-0.707 0.268-0.979 0l-7.908-7.83c-0.27-0.268-0.27-0.701 0-0.969s0.709-0.268 0.979 0l7.419 7.141 7.418-7.141z"></path>
</symbol>
<symbol id="icon-aircraft-take-off" viewBox="0 0 20 20">
<path d="M19.87 6.453c0.119 0.257 0.127 1.29-4.884 3.642l-4.913 2.306c-1.71 0.803-4.191 1.859-5.285 2.151-0.766 0.204-1.497-0.316-1.497-0.316s-2.206-1.975-2.792-2.419c-0.585-0.444-0.535-0.67 0.215-0.91 0.467-0.149 3.13 0.493 4.265 0.78 1.339-0.8 2.562-1.486 3.141-1.798-1.396-1.033-4.008-2.962-4.841-3.55-0.799-0.565 0.010-0.768 0.010-0.768 0.368-0.099 1.162-0.228 1.562-0.144 2.721 0.569 7.263 2.071 7.611 2.186 0.832-0.436 2.128-1.092 2.922-1.465 2.075-0.974 4.327-0.037 4.486 0.305z"></path>
</symbol>
</defs>
</svg>
